<svg xmlns="http://www.w3.org/2000/svg" fill="none" viewBox="0 0 128 29">
<path d="M46.9307 22H44.1006L42.9756 19.0732H37.8252L36.7617 22H34.002L39.0205 9.11523H41.7715L46.9307 22ZM42.1406 16.9023L40.3652 12.1211L38.625 16.9023H42.1406ZM48.3457 22V9.11523H50.877L56.1504 17.7197V9.11523H58.5674V22H55.957L50.7627 13.5977V22H48.3457ZM64.2275 22V11.2949H60.4043V9.11523H70.6436V11.2949H66.8291V22H64.2275ZM71.4697 15.6367C71.4697 14.3242 71.666 13.2227 72.0586 12.332C72.3516 11.6758 72.75 11.0869 73.2539 10.5654C73.7637 10.0439 74.3203 9.65723 74.9238 9.40527C75.7266 9.06543 76.6523 8.89551 77.7012 8.89551C79.5996 8.89551 81.1172 9.48438 82.2539 10.6621C83.3965 11.8398 83.9678 13.4775 83.9678 15.5752C83.9678 17.6553 83.4023 19.2842 82.2715 20.4619C81.1406 21.6338 79.6289 22.2197 77.7363 22.2197C75.8203 22.2197 74.2969 21.6367 73.166 20.4707C72.0352 19.2988 71.4697 17.6875 71.4697 15.6367ZM74.1504 15.5488C74.1504 17.0078 74.4873 18.1152 75.1611 18.8711C75.835 19.6211 76.6904 19.9961 77.7275 19.9961C78.7646 19.9961 79.6143 19.624 80.2764 18.8799C80.9443 18.1299 81.2783 17.0078 81.2783 15.5137C81.2783 14.0371 80.9531 12.9355 80.3027 12.209C79.6582 11.4824 78.7998 11.1191 77.7275 11.1191C76.6553 11.1191 75.791 11.4883 75.1348 12.2266C74.4785 12.959 74.1504 14.0664 74.1504 15.5488ZM86.0332 22V9.11523H88.5645L93.8379 17.7197V9.11523H96.2549V22H93.6445L88.4502 13.5977V22H86.0332ZM98.4873 15.6367C98.4873 14.3242 98.6836 13.2227 99.0762 12.332C99.3691 11.6758 99.7676 11.0869 100.271 10.5654C100.781 10.0439 101.338 9.65723 101.941 9.40527C102.744 9.06543 103.67 8.89551 104.719 8.89551C106.617 8.89551 108.135 9.48438 109.271 10.6621C110.414 11.8398 110.985 13.4775 110.985 15.5752C110.985 17.6553 110.42 19.2842 109.289 20.4619C108.158 21.6338 106.646 22.2197 104.754 22.2197C102.838 22.2197 101.314 21.6367 100.184 20.4707C99.0527 19.2988 98.4873 17.6875 98.4873 15.6367ZM101.168 15.5488C101.168 17.0078 101.505 18.1152 102.179 18.8711C102.853 19.6211 103.708 19.9961 104.745 19.9961C105.782 19.9961 106.632 19.624 107.294 18.8799C107.962 18.1299 108.296 17.0078 108.296 15.5137C108.296 14.0371 107.971 12.9355 107.32 12.209C106.676 11.4824 105.817 11.1191 104.745 11.1191C103.673 11.1191 102.809 11.4883 102.152 12.2266C101.496 12.959 101.168 14.0664 101.168 15.5488ZM116.312 22L111.706 9.11523H114.527L117.788 18.6514L120.943 9.11523H123.703L119.089 22H116.312Z" fill="#1B2B3E"/>
<path d="M29.6152 0.0140381C28.8525 0.0140381 28.2285 0.646612 28.2285 1.41976C28.2285 2.1929 28.8525 2.82548 29.6152 2.82548C30.3779 2.82548 31.0019 2.1929 31.0019 1.41976C31.0019 0.646612 30.3779 0.0140381 29.6152 0.0140381ZM29.6152 2.61462C28.9635 2.61462 28.4365 2.08045 28.4365 1.41976C28.4365 0.75907 28.9635 0.224896 29.6152 0.224896C30.267 0.224896 30.7939 0.75907 30.7939 1.41976C30.7939 2.08045 30.267 2.61462 29.6152 2.61462Z" fill="#1B2B3E"/>
<path d="M30.0729 1.76419C30.0175 1.67985 29.962 1.60956 29.9065 1.55333C29.8788 1.52522 29.8372 1.50413 29.7817 1.47602C29.9273 1.45493 30.0383 1.40573 30.1076 1.32842C30.1769 1.2511 30.2116 1.15973 30.2116 1.04727C30.2116 0.962932 30.1908 0.885617 30.1492 0.808302C30.1076 0.738016 30.0521 0.688816 29.9759 0.660702C29.9065 0.632587 29.8025 0.61853 29.6639 0.61853H28.9844V2.17888H29.1854V1.48305H29.4212C29.4767 1.48305 29.5113 1.48305 29.5321 1.49008C29.5668 1.49711 29.5945 1.51116 29.6223 1.53225C29.65 1.55333 29.6847 1.58848 29.7263 1.63768C29.7679 1.68688 29.8164 1.75716 29.8719 1.85556L30.0729 2.17888H30.3295L30.0729 1.76419ZM29.6223 1.32139H29.1854V0.801274H29.6708C29.7887 0.801274 29.8719 0.82236 29.9204 0.87156C29.9759 0.92076 29.9967 0.976989 29.9967 1.0543C29.9967 1.1035 29.9828 1.1527 29.9551 1.19488C29.9273 1.23705 29.8857 1.27219 29.8372 1.28625C29.7887 1.30733 29.7193 1.32139 29.6223 1.32139Z" fill="#1B2B3E"/>
<path d="M126.615 6.01404C125.853 6.01404 125.229 6.64661 125.229 7.41976C125.229 8.1929 125.853 8.82548 126.615 8.82548C127.378 8.82548 128.002 8.1929 128.002 7.41976C128.002 6.64661 127.378 6.01404 126.615 6.01404ZM126.615 8.61462C125.963 8.61462 125.437 8.08045 125.437 7.41976C125.437 6.75907 125.963 6.2249 126.615 6.2249C127.267 6.2249 127.794 6.75907 127.794 7.41976C127.794 8.08045 127.267 8.61462 126.615 8.61462Z" fill="#1B2B3E"/>
<path d="M127.073 7.76419C127.017 7.67985 126.962 7.60956 126.907 7.55333C126.879 7.52522 126.837 7.50413 126.782 7.47602C126.927 7.45493 127.038 7.40573 127.108 7.32842C127.177 7.2511 127.212 7.15973 127.212 7.04727C127.212 6.96293 127.191 6.88562 127.149 6.8083C127.108 6.73802 127.052 6.68882 126.976 6.6607C126.907 6.63259 126.803 6.61853 126.664 6.61853H125.984V8.17888H126.185V7.48305H126.421C126.477 7.48305 126.511 7.48305 126.532 7.49008C126.567 7.49711 126.595 7.51116 126.622 7.53225C126.65 7.55333 126.685 7.58848 126.726 7.63768C126.768 7.68688 126.816 7.75716 126.872 7.85556L127.073 8.17888H127.329L127.073 7.76419ZM126.622 7.32139H126.185V6.80127H126.671C126.789 6.80127 126.872 6.82236 126.92 6.87156C126.976 6.92076 126.997 6.97699 126.997 7.0543C126.997 7.1035 126.983 7.1527 126.955 7.19488C126.927 7.23705 126.886 7.27219 126.837 7.28625C126.789 7.30733 126.719 7.32139 126.622 7.32139Z" fill="#1B2B3E"/>
<path d="M30.9937 9.11609C30.0369 0.653659 19.4147 0.75206 14.5404 2.91687L14.5334 0L11.6005 0.878575L10.6159 4.96922C4.88188 8.20237 0.305726 14.0431 0.000649034 19.8277C-0.0686867 26.1675 5.42964 29.0843 10.5605 28.993C14.1382 28.9508 17.8823 27.5943 21.7721 25.2116C22.3476 26.6806 23.0686 27.7981 23.8591 28.7399C24.7188 26.786 25.3845 24.3119 25.8698 21.3599C29.2534 17.2271 31.1047 13.1224 30.9937 9.11609ZM12.2523 8.04774V12.2298H11.1845L12.2523 8.04774ZM10.0405 7.54871L8.95882 12.2438L5.76245 12.2298C6.85102 10.2828 8.28627 8.72952 10.0405 7.54871ZM7.57904 19.2373C7.3849 20.6922 7.22543 21.4724 6.81635 21.4161C6.34487 21.2475 6.12299 20.0385 5.98432 19.2373H7.57904ZM3.59917 17.0022C4.42427 21.1701 5.3187 24.6844 7.47504 24.9023C8.42494 24.832 9.29164 23.4052 9.95033 19.2302H12.2384V21.3037H14.4849V19.2443H16.3292V21.2896H18.6866V19.2443H20.4616L21.1411 23.3771C13.0982 28.3955 0.569202 27.039 3.59917 17.0022ZM23.5887 23.4685C22.9508 23.0187 22.7497 21.2264 22.715 19.2373L24.2751 19.2443C24.2474 21.4653 24.0671 23.0819 23.5887 23.4685ZM26.48 15.4699V12.2649H22.5417V10.3602H20.4478V12.1876H18.645V10.3602H16.3569V12.2087H14.5681V4.89893C23.9145 1.65875 30.1201 6.91614 26.48 15.4699Z" fill="#1B2B3E"/>
</svg>