<?xml version="1.0" encoding="UTF-8" standalone="no"?>
<!-- Created with Inkscape (http://www.inkscape.org/) -->

<svg
   xmlns:dc="http://purl.org/dc/elements/1.1/"
   xmlns:cc="http://creativecommons.org/ns#"
   xmlns:rdf="http://www.w3.org/1999/02/22-rdf-syntax-ns#"
   xmlns:svg="http://www.w3.org/2000/svg"
   xmlns="http://www.w3.org/2000/svg"
   xmlns:sodipodi="http://sodipodi.sourceforge.net/DTD/sodipodi-0.dtd"
   xmlns:inkscape="http://www.inkscape.org/namespaces/inkscape"
   width="220"
   height="28"
   id="svg2"
   version="1.1"
   inkscape:version="0.48.2 r9819"
   sodipodi:docname="Robinson_Helicopter_Company_logo.svg">
  <title
     id="title4652">Robinson Helicopter Company logo</title>
  <defs
     id="defs4">
    <clipPath
       id="clipPath3456"
       clipPathUnits="userSpaceOnUse">
      <path
         id="path3458"
         d="M 0,0 612,0 612,792 0,792 0,0 z"
         inkscape:connector-curvature="0" />
    </clipPath>
    <clipPath
       id="clipPath3096"
       clipPathUnits="userSpaceOnUse">
      <path
         id="path3098"
         d="m 72,726.075 468,0 0,29.925 -468,0 0,-29.925 z"
         inkscape:connector-curvature="0" />
    </clipPath>
  </defs>
  <sodipodi:namedview
     id="base"
     pagecolor="#ffffff"
     bordercolor="#666666"
     borderopacity="1.0"
     inkscape:pageopacity="0.0"
     inkscape:pageshadow="2"
     inkscape:zoom="3.066145"
     inkscape:cx="101.06907"
     inkscape:cy="14"
     inkscape:document-units="px"
     inkscape:current-layer="layer1"
     showgrid="false"
     units="px"
     inkscape:window-width="1024"
     inkscape:window-height="689"
     inkscape:window-x="0"
     inkscape:window-y="27"
     inkscape:window-maximized="1"
     fit-margin-top="0"
     fit-margin-left="0"
     fit-margin-right="0"
     fit-margin-bottom="0" />
  <metadata
     id="metadata7">
    <rdf:RDF>
      <cc:Work
         rdf:about="">
        <dc:format>image/svg+xml</dc:format>
        <dc:type
           rdf:resource="http://purl.org/dc/dcmitype/StillImage" />
        <dc:title>Robinson Helicopter Company logo</dc:title>
        <dc:date>2013-03-08</dc:date>
        <dc:creator>
          <cc:Agent>
            <dc:title>Robinson Helicopter Company</dc:title>
          </cc:Agent>
        </dc:creator>
        <dc:publisher>
          <cc:Agent>
            <dc:title>Robinson Helicopter Company</dc:title>
          </cc:Agent>
        </dc:publisher>
        <dc:description>Logo used by Robinson Helicopter Company of Torrance, California, consisting solely of text elements.</dc:description>
      </cc:Work>
    </rdf:RDF>
  </metadata>
  <g
     inkscape:label="Layer 1"
     inkscape:groupmode="layer"
     id="layer1"
     transform="translate(-478.32641,-447.14055)">
    <path
       id="path3080"
       style="fill:#263376;fill-opacity:1;fill-rule:nonzero;stroke:none"
       d="m 479.32641,466.86387 2.2292,0 0,2.69892 4.71543,0 0,-2.69892 2.23033,0 0,7.53491 -2.23033,0 0,-2.85246 -4.71543,0 0,2.85246 -2.2292,0 0,-7.53491 z"
       inkscape:connector-curvature="0" />
    <path
       id="path3084"
       style="fill:#263376;fill-opacity:1;fill-rule:nonzero;stroke:none"
       d="m 492.59808,466.86387 7.96369,0 0,1.7481 -5.73336,0 0,1.22151 5.43537,0 0,1.55361 -5.43537,0 0,1.20331 5.86756,0 0,1.80838 -8.09789,0 0,-7.53491 z"
       inkscape:connector-curvature="0" />
    <path
       id="path3088"
       style="fill:#263376;fill-opacity:1;fill-rule:nonzero;stroke:none"
       d="m 504.59297,466.86387 2.22806,0 0,5.60825 5.02365,0 0,1.92666 -7.25171,0 0,-7.53491 z"
       inkscape:connector-curvature="0" />
    <path
       inkscape:connector-curvature="0"
       d="m 515.42744,466.86433 2.23033,0 0,7.53491 -2.23033,0 0,-7.53491 z"
       style="fill:#263376;fill-opacity:1;fill-rule:nonzero;stroke:none"
       id="path3090" />
    <path
       id="path3102"
       style="fill:#263376;fill-opacity:1;fill-rule:nonzero;stroke:none"
       d="m 521.49256,469.49853 c 0,-0.54593 0.0762,-0.99973 0.23088,-1.3614 0.0717,-0.18539 0.1615,-0.34917 0.26955,-0.48679 0.10123,-0.13762 0.21837,-0.25249 0.35372,-0.34461 0.55616,-0.36509 1.34093,-0.5391 2.35203,-0.52773 l 2.6284,0 c 1.54224,-0.005 2.53969,0.19903 2.99463,0.61416 0.25021,0.21269 0.41172,0.50271 0.48337,0.87121 0.0751,0.3594 0.10577,0.80752 0.0933,1.34662 l -2.23147,0 0,-0.207 c 0,-0.265 -0.091,-0.45266 -0.27069,-0.56412 -0.18311,-0.0887 -0.44356,-0.13307 -0.77794,-0.13307 l -2.43961,0 c -0.57094,0 -0.94968,0.13307 -1.1362,0.39921 -0.18084,0.26613 -0.26842,0.64032 -0.26159,1.12028 l 0,0.81661 c -0.007,0.53569 0.0784,0.92239 0.25249,1.16237 0.17287,0.24567 0.51749,0.36168 1.0293,0.35258 l 2.38842,0 c 0.49929,0.009 0.84618,-0.0489 1.03953,-0.17515 0.18653,-0.12397 0.27752,-0.41627 0.27183,-0.86893 l 2.22919,0 0,0.70742 c 0,0.3105 -0.0296,0.60393 -0.0887,0.88372 -0.042,0.1308 -0.0933,0.2559 -0.15127,0.37305 -0.0693,0.12624 -0.15354,0.23998 -0.25021,0.3412 -0.19108,0.20927 -0.4629,0.37419 -0.81661,0.49134 -0.35827,0.11714 -0.81776,0.17515 -1.38074,0.17515 l -3.60311,0 c -1.0111,0.005 -1.797,-0.17515 -2.35317,-0.5391 -0.13534,-0.10464 -0.25362,-0.22975 -0.35485,-0.37533 -0.10691,-0.13648 -0.19676,-0.29457 -0.26841,-0.46517 -0.15582,-0.34689 -0.23202,-0.79159 -0.23202,-1.34093 l 0,-2.26559 z"
       inkscape:connector-curvature="0" />
    <path
       id="path3106"
       style="fill:#263376;fill-opacity:1;fill-rule:nonzero;stroke:none"
       d="m 537.05337,471.04236 c -0.007,0.53569 0.0773,0.92125 0.25249,1.16123 0.17287,0.24566 0.51635,0.36281 1.02929,0.35371 l 2.86156,0 c 0.52546,0.009 0.87576,-0.10805 1.04977,-0.35371 0.16378,-0.23998 0.24226,-0.62554 0.23202,-1.16123 l 0,-0.81775 c 0.0103,-0.47996 -0.0751,-0.85415 -0.25249,-1.11915 -0.18766,-0.26728 -0.56981,-0.40034 -1.14758,-0.40034 l -2.62499,0 c -0.57095,0 -0.95196,0.13306 -1.13848,0.40034 -0.18198,0.265 -0.26842,0.63919 -0.26159,1.11915 l 0,0.81775 z m -2.28948,-1.53997 c 0,-0.54706 0.0784,-1.00086 0.23088,-1.36367 0.0739,-0.18425 0.16378,-0.34803 0.27069,-0.48565 0.10122,-0.13875 0.21951,-0.25363 0.35371,-0.34575 0.55844,-0.36623 1.34321,-0.54138 2.35545,-0.52887 l 3.58377,0 c 0.50384,0 0.95764,0.0341 1.3614,0.1035 0.39125,0.0773 0.72563,0.21951 1.002,0.42651 0.5573,0.38214 0.83709,1.11687 0.84391,2.20076 l 0,2.24853 c -0.006,1.07479 -0.28661,1.80383 -0.84391,2.18598 -0.27637,0.19562 -0.61075,0.33324 -1.002,0.41854 -0.40376,0.0808 -0.85756,0.12169 -1.3614,0.12169 l -3.58377,0 c -1.01224,0.005 -1.79701,-0.17401 -2.35545,-0.53796 -0.1342,-0.10464 -0.25249,-0.22974 -0.35371,-0.37532 -0.10691,-0.13762 -0.19676,-0.29458 -0.27069,-0.46631 -0.1524,-0.34576 -0.23088,-0.7916 -0.23088,-1.3398 l 0,-2.26218 z"
       inkscape:connector-curvature="0" />
    <path
       id="path3110"
       style="fill:#263376;fill-opacity:1;fill-rule:nonzero;stroke:none"
       d="m 550.94637,470.63804 3.47914,0 c 0.26273,0 0.44925,-0.0819 0.56071,-0.24226 0.10918,-0.15354 0.1615,-0.34234 0.1615,-0.56639 l 0,-0.29116 c 0,-0.26501 -0.066,-0.46404 -0.19903,-0.59711 -0.13648,-0.13762 -0.37419,-0.20927 -0.71426,-0.20927 l -3.28806,0 0,1.90619 z m -2.23147,-3.77371 6.08934,0 c 1.04636,0.005 1.75265,0.25021 2.12229,0.73017 0.35599,0.47996 0.52545,1.09527 0.51181,1.8516 l 0,0.64487 c 0,0.28434 -0.0261,0.56754 -0.0784,0.84391 -0.0682,0.28548 -0.18197,0.54479 -0.34461,0.7825 -0.15354,0.23315 -0.36168,0.41968 -0.62327,0.5573 -0.26955,0.15354 -0.6062,0.22974 -1.00768,0.22974 l -4.43792,0 0,1.89482 -2.23147,0 0,-7.53491 z"
       inkscape:connector-curvature="0" />
    <path
       id="path3114"
       style="fill:#263376;fill-opacity:1;fill-rule:nonzero;stroke:none"
       d="m 560.67659,466.86387 8.51303,0 0,1.86866 -3.14249,0 0,5.66625 -2.22919,0 0,-5.66625 -3.14135,0 0,-1.86866 z"
       inkscape:connector-curvature="0" />
    <path
       id="path3118"
       style="fill:#263376;fill-opacity:1;fill-rule:nonzero;stroke:none"
       d="m 572.6948,466.86387 7.96369,0 0,1.7481 -5.7345,0 0,1.22151 5.43424,0 0,1.55361 -5.43424,0 0,1.20331 5.86757,0 0,1.80838 -8.09676,0 0,-7.53491 z"
       inkscape:connector-curvature="0" />
    <path
       id="path3122"
       style="fill:#263376;fill-opacity:1;fill-rule:nonzero;stroke:none"
       d="m 586.9182,470.57582 3.70092,0 c 0.30254,0 0.5175,-0.066 0.64488,-0.20017 0.12056,-0.1217 0.18311,-0.3196 0.18311,-0.59256 l 0,-0.25135 c 0,-0.33097 -0.0808,-0.5482 -0.24339,-0.65056 -0.16833,-0.0989 -0.43219,-0.149 -0.78818,-0.149 l -3.49734,0 0,1.84364 z m -2.23033,-3.71229 6.74901,0 c 0.84049,0.006 1.41826,0.21041 1.73217,0.60506 0.29912,0.40376 0.44584,0.94969 0.44015,1.63892 l 0,0.47882 c 0.005,0.49816 -0.0728,0.89623 -0.23543,1.19421 -0.1797,0.31505 -0.52886,0.53455 -1.04977,0.65739 l 0,0.0194 c 0.1797,0.0318 0.34462,0.0761 0.49702,0.13762 0.14558,0.0534 0.27524,0.14217 0.39466,0.26841 0.11829,0.12511 0.207,0.28661 0.26955,0.48337 0.0626,0.20472 0.0967,0.46404 0.0967,0.77453 l 0,1.27724 -2.2292,0 0,-0.90419 c 0,-0.39352 -0.066,-0.67217 -0.19335,-0.83026 -0.13307,-0.14672 -0.37532,-0.21723 -0.72335,-0.21723 l -3.51781,0 0,1.95168 -2.23033,0 0,-7.53491 z"
       inkscape:connector-curvature="0" />
    <path
       id="path3126"
       style="fill:#263376;fill-opacity:1;fill-rule:nonzero;stroke:none"
       d="m 604.91373,469.49853 c 0,-0.54593 0.0773,-0.99973 0.23088,-1.3614 0.0728,-0.18539 0.16264,-0.34917 0.27069,-0.48679 0.10122,-0.13762 0.21951,-0.25249 0.35371,-0.34461 0.55616,-0.36509 1.3398,-0.5391 2.35203,-0.52773 l 2.62841,0 c 1.53996,-0.005 2.53969,0.19903 2.99462,0.61416 0.25022,0.21269 0.41059,0.50271 0.4811,0.87121 0.0773,0.3594 0.10691,0.80752 0.0944,1.34662 l -2.23147,0 0,-0.207 c 0,-0.265 -0.0898,-0.45266 -0.26955,-0.56412 -0.18539,-0.0887 -0.44356,-0.13307 -0.77794,-0.13307 l -2.44075,0 c -0.56981,0 -0.94854,0.13307 -1.13507,0.39921 -0.18083,0.26613 -0.26727,0.64032 -0.26045,1.12028 l 0,0.81661 c -0.006,0.53569 0.0751,0.92239 0.25022,1.16237 0.17515,0.24567 0.51749,0.36168 1.02929,0.35258 l 2.38957,0 c 0.49929,0.009 0.84618,-0.0489 1.03953,-0.17515 0.18652,-0.12397 0.27524,-0.41627 0.26955,-0.86893 l 2.23033,0 0,0.70742 c 0,0.3105 -0.0284,0.60393 -0.0875,0.88372 -0.0432,0.1308 -0.0944,0.2559 -0.1524,0.37305 -0.0694,0.12624 -0.1524,0.23998 -0.25022,0.3412 -0.19107,0.20927 -0.4629,0.37419 -0.81547,0.49134 -0.35827,0.11714 -0.82003,0.17515 -1.38188,0.17515 l -3.60311,0 c -1.01109,0.005 -1.79586,-0.17515 -2.35316,-0.5391 -0.13421,-0.10464 -0.25135,-0.22975 -0.35372,-0.37533 -0.10804,-0.13648 -0.19789,-0.29457 -0.27068,-0.46517 -0.15355,-0.34689 -0.23089,-0.79159 -0.23089,-1.34093 l 0,-2.26559 z"
       inkscape:connector-curvature="0" />
    <path
       id="path3130"
       style="fill:#263376;fill-opacity:1;fill-rule:nonzero;stroke:none"
       d="m 620.47602,471.04236 c -0.007,0.53569 0.0763,0.92125 0.25021,1.16123 0.17516,0.24566 0.51863,0.36281 1.0293,0.35371 l 2.8627,0 c 0.52659,0.009 0.87575,-0.10805 1.04863,-0.35371 0.16492,-0.23998 0.24339,-0.62554 0.23202,-1.16123 l 0,-0.81775 c 0.0114,-0.47996 -0.0728,-0.85415 -0.25135,-1.11915 -0.18767,-0.26728 -0.56981,-0.40034 -1.14758,-0.40034 l -2.625,0 c -0.57208,0 -0.95082,0.13306 -1.13848,0.40034 -0.18084,0.265 -0.26727,0.63919 -0.26045,1.11915 l 0,0.81775 z m -2.28948,-1.53997 c 0,-0.54706 0.0762,-1.00086 0.22975,-1.36367 0.0728,-0.18425 0.16378,-0.34803 0.27182,-0.48565 0.10123,-0.13875 0.21951,-0.25363 0.35258,-0.34575 0.55844,-0.36623 1.34207,-0.54138 2.35544,-0.52887 l 3.58264,0 c 0.50498,0 0.95878,0.0341 1.3614,0.1035 0.39352,0.0773 0.7279,0.21951 1.00314,0.42651 0.55616,0.38214 0.83822,1.11687 0.84504,2.20076 l 0,2.24853 c -0.006,1.07479 -0.28888,1.80383 -0.84504,2.18598 -0.27524,0.19562 -0.60962,0.33324 -1.00314,0.41854 -0.40262,0.0808 -0.85642,0.12169 -1.3614,0.12169 l -3.58264,0 c -1.01337,0.005 -1.797,-0.17401 -2.35544,-0.53796 -0.13307,-0.10464 -0.25135,-0.22974 -0.35258,-0.37532 -0.10804,-0.13762 -0.19903,-0.29458 -0.27182,-0.46631 -0.15354,-0.34576 -0.22975,-0.7916 -0.22975,-1.3398 l 0,-2.26218 z"
       inkscape:connector-curvature="0" />
    <path
       id="path3134"
       style="fill:#263376;fill-opacity:1;fill-rule:nonzero;stroke:none"
       d="m 632.14518,466.86387 3.42568,0 2.52377,4.85647 2.52263,-4.85647 3.42568,0 0,7.53491 -2.16209,0 0,-5.41148 -0.0205,0 -2.92867,5.41148 -1.67303,0 -2.9298,-5.41148 -0.0205,0 0,5.41148 -2.16323,0 0,-7.53491 z"
       inkscape:connector-curvature="0" />
    <path
       id="path3138"
       style="fill:#263376;fill-opacity:1;fill-rule:nonzero;stroke:none"
       d="m 650.46325,470.63804 3.48142,0 c 0.26045,0 0.44811,-0.0819 0.55957,-0.24226 0.10805,-0.15354 0.16378,-0.34234 0.16378,-0.56639 l 0,-0.29116 c 0,-0.26501 -0.0682,-0.46404 -0.20245,-0.59711 -0.13421,-0.13762 -0.37305,-0.20927 -0.71312,-0.20927 l -3.2892,0 0,1.90619 z m -2.22919,-3.77371 6.0882,0 c 1.04409,0.005 1.75265,0.25021 2.12343,0.73017 0.35371,0.47996 0.52431,1.09527 0.5118,1.8516 l 0,0.64487 c 0,0.28434 -0.0273,0.56754 -0.0796,0.84391 -0.0682,0.28548 -0.18425,0.54479 -0.34234,0.7825 -0.15696,0.23315 -0.36395,0.41968 -0.62668,0.5573 -0.26728,0.15354 -0.60279,0.22974 -1.00655,0.22974 l -4.43906,0 0,1.89482 -2.22919,0 0,-7.53491 z"
       inkscape:connector-curvature="0" />
    <path
       id="path3142"
       style="fill:#263376;fill-opacity:1;fill-rule:nonzero;stroke:none"
       d="m 663.42671,471.44646 2.85246,0 -1.4467,-2.83426 -1.40576,2.83426 z m -0.0398,-4.58236 2.90137,0 3.99549,7.53491 -2.47941,0 -0.69151,-1.33979 -4.51981,0 -0.6517,1.33979 -2.48851,0 3.93408,-7.53491 z"
       inkscape:connector-curvature="0" />
    <path
       id="path3146"
       style="fill:#263376;fill-opacity:1;fill-rule:nonzero;stroke:none"
       d="m 673.68215,466.86387 3.4598,0 4.20022,5.47973 0.0194,0 0,-5.47973 2.23033,0 0,7.53491 -3.46435,0 -4.19453,-5.47859 -0.0194,0 0,5.47859 -2.23147,0 0,-7.53491 z"
       inkscape:connector-curvature="0" />
    <path
       id="path3150"
       style="fill:#263376;fill-opacity:1;fill-rule:nonzero;stroke:none"
       d="m 691.06305,471.77981 -4.03871,-4.9156 2.69778,0 2.45553,3.08334 2.45667,-3.08334 2.69209,0 -4.03416,4.91333 0,2.62158 -2.2292,0 0,-2.61931 z"
       inkscape:connector-curvature="0" />
    <path
       id="path3442"
       style="fill:#263376;fill-opacity:1;fill-rule:nonzero;stroke:none"
       d="m 693.42987,447.92503 0,9.91993 c -1.4922,-0.95082 -15.57935,-9.91993 -15.57935,-9.91993 l -4.27869,0 0,12.85428 3.46776,0 0,-9.90514 c 1.4922,0.94854 15.58162,9.90514 15.58162,9.90514 l 4.27756,0 0,-12.85428 -3.4689,0 z m -31.23263,8.63586 c 0,0.39352 -0.074,0.71312 -0.21951,0.95424 -0.16264,0.23656 -0.39011,0.43219 -0.68354,0.57435 -9.1e-4,0 -0.50612,0.19108 -0.50612,0.19108 0.0159,-0.004 -0.63464,0.13648 -0.63464,0.13648 0.007,0 -1.57067,0.11146 -1.57067,0.11146 l -9.70383,0 -0.76543,-0.0329 c -9.1e-4,0 -0.7643,-0.0796 -0.7643,-0.0796 0.007,0 -1.17942,-0.33097 -1.17942,-0.33097 -0.26159,-0.13307 -0.48451,-0.32983 -0.66308,-0.59256 -0.17173,-0.24339 -0.25249,-0.54592 -0.25249,-0.93148 l 0,-4.43337 c 0,-0.40603 0.0842,-0.73473 0.25022,-0.97698 0.17515,-0.24226 0.40035,-0.43447 0.68241,-0.57663 0.67217,-0.27752 1.59,-0.42082 2.68868,-0.41286 l 9.70724,0 c 1.11005,-0.008 2.0313,0.13534 2.74214,0.42992 0.265,0.12965 0.49588,0.31959 0.67444,0.56753 0.12284,0.21155 0.1979,0.54934 0.1979,0.96902 l 0,4.43337 z m -3.38019,-8.75983 -10.18492,0 c -2.48851,0 -4.21045,0.38329 -5.2625,1.17602 -1.04749,0.81547 -1.57408,2.05518 -1.57408,3.68727 l 0,3.3654 c 0,1.60593 0.52545,2.83995 1.56271,3.66794 1.06342,0.80183 2.78536,1.18853 5.27387,1.18853 l 10.18492,0 c 2.50785,0 4.23661,-0.38556 5.28865,-1.17829 1.05091,-0.85301 1.56727,-2.11433 1.54907,-3.7612 l 0,-3.20163 c 0.0182,-1.66735 -0.4993,-2.93207 -1.53883,-3.75779 -1.06228,-0.80182 -2.79104,-1.18625 -5.29889,-1.18625 m -31.83201,5.31368 -7.02879,0 c -2.12797,0 -2.98439,-0.20017 -3.32673,-0.36964 -0.37646,-0.1888 -0.52773,-0.47427 -0.50498,-0.95082 -0.0114,-0.73927 0.28888,-1.12028 1.00769,-1.31022 0.89281,-0.207 2.46235,-0.30936 4.64719,-0.3014 l 2.51922,0 c 3.64177,-0.0102 4.96109,0.19449 5.4274,0.3685 0.19222,0.0672 0.42537,0.1797 0.4902,0.35258 l 0,9.1e-4 c 0,0.0194 0.10805,0.95196 0.10805,0.95196 l 0.0546,0.47427 0.4811,0.0785 2.76375,0 0,-0.93603 c 0.0399,-1.2454 -0.56413,-2.23489 -1.74355,-2.84564 -1.14872,-0.54138 -3.15614,-0.80296 -6.15645,-0.80296 l -5.10668,0 c -2.51694,-0.0159 -4.35831,0.19562 -5.62872,0.64487 -1.42054,0.53455 -2.1655,1.63095 -2.1655,3.17319 -0.0364,1.73673 0.82798,2.91047 2.4976,3.38588 1.51495,0.4174 4.02279,0.60507 7.66798,0.57436 l 4.50616,0 c 1.71171,-0.0103 2.47942,0.16036 2.82062,0.30708 0.21609,0.10236 0.48451,0.31504 0.46972,0.98494 0.0148,0.82571 -0.32642,1.0964 -0.62667,1.24539 -0.40035,0.1979 -1.29999,0.43219 -3.29717,0.41286 l -7.36544,0 c -1.6992,0 -2.44984,-0.20813 -2.77967,-0.38329 -0.51749,-0.24111 -0.5755,-0.52204 -0.56868,-0.76657 l 9.1e-4,-1.38187 -3.30171,0 0,1.40235 c 0,0.7586 0.23771,1.39211 0.70402,1.8823 0.37987,0.45949 0.944,0.8223 1.65142,1.05773 0.64033,0.21269 1.38301,0.36054 2.20532,0.43447 l 2.49988,0.10805 6.59205,0 2.6557,-0.0944 c 0.86552,-0.0478 1.66507,-0.18198 2.36795,-0.39694 0.7461,-0.2286 1.36027,-0.58687 1.8243,-1.06455 0.47086,-0.53342 0.71426,-1.21355 0.74383,-2.04154 l 9.1e-4,-0.77908 c 0.025,-0.71652 -0.2161,-1.35116 -0.71539,-1.86524 -1.02361,-1.05318 -3.11405,-1.56158 -6.39188,-1.5502 m -25.77678,4.73021 c -1.48424,-0.95992 -15.35985,-9.91651 -15.35985,-9.91651 l -4.22523,0 0,12.84631 3.42795,0 0,-9.89945 c 1.48538,0.95765 15.35985,9.89945 15.35985,9.89945 l 4.22751,0 0,-12.84631 -3.43023,0 0,9.91651 z m -31.32817,2.94118 3.55193,0 0,-12.86792 -3.55193,0 0,12.86792 z m -11.45761,-3.40863 c 0,0.32756 -0.11828,0.53683 -0.39693,0.70061 -0.26614,0.15127 -0.85756,0.33779 -2.12684,0.33779 l -12.25603,0 0,-3.0424 11.88412,0 c 0,0 1.48537,0.0239 1.48651,0.0239 l 0,0 c 0,0.008 0.85983,0.22406 0.85983,0.22406 0.23088,0.0808 0.36281,0.17401 0.44925,0.30367 0.058,0.10464 0.10009,0.32869 0.10009,0.60507 l 0,0.84732 z m -14.7798,-7.07655 12.04107,0 c 0.0103,0 1.416,0.20813 1.416,0.20813 l 0.49247,0.23998 c 0.0341,0.0341 0.0864,0.10463 0.0864,0.265 l 0,1.07252 -0.0875,0.36281 c -0.0136,0.0159 -0.3958,0.29571 -0.3958,0.29571 -0.45608,0.17401 -1.01224,0.26045 -1.63891,0.25249 l -11.91369,0 0,-2.69664 z m 16.91118,3.74186 c -0.16719,-0.0785 -0.36395,-0.11373 -0.54478,-0.17515 0.11032,-0.0648 0.26613,-0.10805 0.35598,-0.18311 0,-0.009 0.63123,-0.72563 0.63123,-0.72563 0.017,-0.0364 0.17629,-0.86324 0.17629,-0.86324 l 0,-1.0111 -0.23088,-1.18626 c -0.19904,-0.4356 -0.52546,-0.78818 -0.98039,-1.07934 -0.77454,-0.57663 -2.10978,-0.87803 -4.05123,-0.89509 l -15.75563,0 0,12.85655 16.03428,0 c 1.58091,0 2.90706,-0.23316 3.94204,-0.69151 1.44443,-0.64032 1.76516,-1.61844 1.77995,-2.32814 l 0,-1.41031 c 0,-0.55616 -0.12284,-1.03271 -0.36395,-1.41485 -0.2525,-0.37647 -0.58233,-0.67218 -0.99291,-0.89282 m -31.76604,2.51808 c 0,0.39125 -0.0751,0.71084 -0.22292,0.95082 -0.16264,0.23543 -0.39579,0.43106 -0.69264,0.57209 -9.1e-4,9.1e-4 -0.51408,0.19221 -0.51408,0.19221 0.0148,-0.005 -0.64488,0.13762 -0.64488,0.13762 0.007,0 -1.59796,0.11259 -1.59796,0.11259 l -9.84714,0 -0.77794,-0.0341 c -9.1e-4,0 -0.77681,-0.0808 -0.77681,-0.0808 0.006,0 -1.1999,-0.33097 -1.1999,-0.33097 -0.26727,-0.13535 -0.49247,-0.33097 -0.67444,-0.59256 -0.17288,-0.24225 -0.25477,-0.54365 -0.25477,-0.92693 l 0,-4.43337 c 0,-0.40376 0.0853,-0.73018 0.25363,-0.97243 0.17629,-0.24226 0.4049,-0.43333 0.69378,-0.57664 0.68468,-0.27865 1.61731,-0.42195 2.73304,-0.41399 l 9.85055,0 c 1.1271,-0.008 2.06428,0.13534 2.78763,0.43105 0.27069,0.12966 0.50498,0.32073 0.68468,0.56867 0.12397,0.21041 0.20017,0.54707 0.20017,0.96334 l 0,4.43337 z m -3.43364,-8.76438 -10.33733,0 c -2.52377,0 -4.26845,0.38329 -5.33528,1.17374 -1.06228,0.81775 -1.59684,2.0586 -1.59684,3.68841 l 0,3.37564 c 0,1.60479 0.53228,2.83881 1.58546,3.66907 1.07821,0.8007 2.82175,1.18626 5.34666,1.18626 l 10.33733,0 c 2.54196,0 4.29461,-0.38556 5.36144,-1.17602 1.06683,-0.85414 1.59228,-2.11774 1.57295,-3.76689 l 0,-3.20162 c 0.0194,-1.66962 -0.50839,-2.93663 -1.56385,-3.76234 -1.07707,-0.80296 -2.82858,-1.18625 -5.37054,-1.18625 m -28.16066,4.78254 c 0.005,0.23315 -0.0557,0.3992 -0.19676,0.54251 -0.29571,0.3014 -1.07138,0.65739 -3.08562,0.63805 l -11.04362,0 0,-3.45866 10.45107,0 c 2.07224,0 2.96847,0.18083 3.35289,0.32869 0.37077,0.16378 0.53228,0.42309 0.52204,0.86324 l 0,1.08617 z m 2.24512,-3.70775 c -0.89396,-0.64146 -2.60793,-0.94741 -5.25795,-0.94741 l -14.79799,0 0,12.85655 3.48482,0 0,-4.6415 11.24834,0 1.46718,0.0443 c 0,0.004 0.92352,0.22405 0.92352,0.22405 0.21951,0.10009 0.36964,0.22747 0.45722,0.38898 0.10918,0.20017 0.16377,0.49019 0.16377,0.85755 l 0,3.12656 3.34948,0 c 0,0 9.1e-4,-3.60424 9.1e-4,-3.62926 0,-0.63919 -0.25362,-1.22037 -0.75178,-1.71853 -0.17402,-0.14672 -0.44357,-0.2468 -0.68355,-0.36168 0.13535,-0.0546 0.29458,-0.0875 0.41741,-0.15354 0.53796,-0.27069 1.19762,-0.86665 1.22492,-2.14389 l 0,-0.97471 c 9.1e-4,-0.0523 0.002,-0.1035 0.002,-0.15581 0,-1.19877 -0.41854,-2.13594 -1.2488,-2.77171"
       inkscape:connector-curvature="0" />
  </g>
</svg>
