<svg xmlns="http://www.w3.org/2000/svg" width="900" height="540" viewBox="0 0 900 540"><rect width="900" height="540" rx="42" fill="#111820"/><g fill="none" stroke="#f5f0e6" stroke-opacity=".09"><path d="M80 80h740M80 180h740M80 280h740M80 380h740M80 480h740M160 40v460M320 40v460M480 40v460M640 40v460M800 40v460"/></g><path d="M112 402 C 220 220, 392 306, 506 174 S 720 100, 792 252" fill="none" stroke="#c8a96a" stroke-width="7" stroke-linecap="round"/><g fill="#f5f0e6"><circle cx="112" cy="402" r="10"/><circle cx="506" cy="174" r="10"/><circle cx="792" cy="252" r="10"/></g><path d="M432 308l218-94-108 151-30-18-55 64-28-15 40-77z" fill="#f5f0e6" opacity=".92"/></svg>