<svg xmlns="http://www.w3.org/2000/svg" width="1600" height="900" viewBox="0 0 1600 900"><defs><linearGradient id="g" x1="0" y1="0" x2="1" y2="1"><stop stop-color="#111820"/><stop offset=".62" stop-color="#1a2027"/><stop offset="1" stop-color="#0f1115"/></linearGradient><filter id="noise"><feTurbulence type="fractalNoise" baseFrequency="0.85" numOctaves="3" stitchTiles="stitch"/><feColorMatrix type="saturate" values="0"/><feComponentTransfer><feFuncA type="table" tableValues="0 0.13"/></feComponentTransfer></filter><radialGradient id="orb" cx="70%" cy="20%" r="60%"><stop stop-color="#c8a96a" stop-opacity=".25"/><stop offset=".72" stop-color="#c8a96a" stop-opacity="0"/></radialGradient></defs><rect width="1600" height="900" fill="url(#g)"/><rect width="1600" height="900" filter="url(#noise)" opacity=".55"/><rect width="1600" height="900" fill="url(#orb)"/><g fill="none" stroke="#f7f0de" stroke-opacity=".08"><path d="M-100 590 C 250 430, 480 720, 860 545 S 1370 315, 1720 470"/><path d="M-80 650 C 290 520, 540 790, 910 620 S 1350 400, 1740 555"/><path d="M200 -120 L920 900M440 -120 L1160 900M680 -120 L1400 900"/></g><g stroke="#c8a96a" stroke-width="2" stroke-opacity=".38" fill="none"><path d="M195 620 C 485 478, 620 500, 910 360"/><circle cx="195" cy="620" r="5" fill="#c8a96a"/><circle cx="910" cy="360" r="5" fill="#c8a96a"/></g></svg>